<?xml version="1.0" encoding="UTF-8" standalone="no"?>
<svg xmlns="http://www.w3.org/2000/svg" xmlns:xlink="http://www.w3.org/1999/xlink" width="5in" height="5in" viewBox="0 0 126.99999 126.99999">
  <defs>
    <path id="a" d="M7.9891762 277.95018c-.91181-.0124-1.8652522.74364-2.0810098 1.73633-.1426699.65625-.1311862.64691-.9508463.77882-2.46623.39686-3.97082438 1.51347-4.76818436 3.53852-.34166.8677-.27756343.89375.66972657.27495 4.41431999-2.88352 9.69132869-2.56465 13.10100869.79147 1.0047.98891 1.244002.9-2.228287.8902-3.5493601-.003-3.3603804.0284-5.1154506-.83197-1.0142799-.49721-.8909507-.46973-1.1513507-.25877-.5509101.44656-1.5465913.96897-3.0407911 1.41267-.3025738.0963-.444976.13427-.444976.13427L19.05 286.41663l-1.950786-1.91154c-.313256.30074-.550654.65373-.699698 1.05628-.19725.53287-.291666.48576-1.142566-.57017-1.65116-2.04894-3.18052-3.2535-5.4286096-4.27632-1.4745398-.67081-1.71339-1.06735-1.3590899-2.25586.1203899-.40383.1221787-.39546-.094051-.45524-.1262774-.0347-.2557645-.0519-.3860231-.0537zm.0000131 16.933c-.911809.0124-1.8652499-.74364-2.0810076-1.73633-.1426699-.65625-.1311859-.64691-.9508449-.77882-2.4662272-.39686-3.97081947-1.51347-4.76817855-3.53852-.3416596-.8677-.27756368-.89375.66972523-.27495 4.41431492 2.88352 9.69131752 2.56465 13.10099352-.79147 1.004699-.98891 1.244-.9-2.228285-.8902-3.549355.003-3.3603752-.0284-5.1154441.83197-1.0142789.49721-.890949.46973-1.1513487.25877-.5509104-.44656-1.5465902-.96897-3.0407875-1.41267-.3025737-.0963-.4449755-.13427-.4449755-.13427L19.05 286.41673l-1.950784 1.91154c-.313255-.30074-.550653-.65373-.699697-1.05628-.19725-.53287-.291666-.48576-1.142565.57017-1.651158 2.04894-3.180516 3.2535-5.4286029 4.27632-1.4745372.67081-1.713388 1.06735-1.3590884 2.25586.1203899.40383.1221789.39546-.09405.45524-.1262778.0347-.2557647.0519-.3860235.0537z"/>
  </defs>
  <g fill="#ff4500" transform="translate(.00007525 -862.99885) scale(3.33333)">
    <g transform="translate(0 -8.4666667)">
      <use xlink:href="#a"/>
      <use xlink:href="#a" transform="matrix(-1 0 0 1 38.1 .00000298)"/>
    </g>
    <g transform="rotate(-90 14.816639 282.18334)">
      <use xlink:href="#a"/>
      <use xlink:href="#a" transform="matrix(-1 0 0 1 38.1 .00000298)"/>
    </g>
    <path d="M21.828124 277.95001a2.778125 2.778125 0 0 1-2.778125 2.77813 2.778125 2.778125 0 0 1-2.778125-2.77813 2.778125 2.778125 0 0 1 2.778125-2.77812 2.778125 2.778125 0 0 1 2.778125 2.77812z"/>
  </g>
</svg>